# Rhino

mtllib cubo.bj.mtl
usemtl diffuse_Black
v -100 0 170
v -100 170 170
v 90 0 170
v 90 170 170
v 90 0 170
v 90 170 170
v 90 0 -40
v 90 170 -40
v 90 0 -40
v 90 170 -40
v -100 0 -40
v -100 170 -40
v -100 0 -40
v -100 170 -40
v -100 0 170
v -100 170 170
v -100 0 170
v 90 0 170
v 90 0 -40
v -100 0 -40
v -100 170 170
v 90 170 170
v 90 170 -40
v -100 170 -40
vt 0 0
vt 0 0.65454500913619995
vt 0.23749999701976776 0
vt 0.23749999701976776 0.65454500913619995
vt 0.23749999701976776 0
vt 0.23749999701976776 0.65454500913619995
vt 0.5 0
vt 0.5 0.65454500913619995
vt 0.5 0
vt 0.5 0.65454500913619995
vt 0.73750001192092896 0
vt 0.73750001192092896 0.65454500913619995
vt 0.73750001192092896 0
vt 0.73750001192092896 0.65454500913619995
vt 1 0
vt 1 0.65454500913619995
vt 0.26249998807907104 1
vt 0.26249998807907104 0.65454566478729248
vt 0 0.65454566478729248
vt 0 1
vt 1 0.65454566478729248
vt 1 1
vt 0.73750001192092896 1
vt 0.73750001192092896 0.65454566478729248
vn 0 0 1
vn 0 0 1
vn 0 0 1
vn 0 0 1
vn 1 0 0
vn 1 0 0
vn 1 0 0
vn 1 0 0
vn 0 0 -1
vn 0 0 -1
vn 0 0 -1
vn 0 0 -1
vn -1 0 0
vn -1 0 0
vn -1 0 0
vn -1 0 0
vn 0 -1 0
vn 0 -1 0
vn 0 -1 0
vn 0 -1 0
vn 0 1 0
vn 0 1 0
vn 0 1 0
vn 0 1 0
f 1/1/1 3/3/3 4/4/4 2/2/2
f 5/5/5 7/7/7 8/8/8 6/6/6
f 9/9/9 11/11/11 12/12/12 10/10/10
f 13/13/13 15/15/15 16/16/16 14/14/14
f 18/18/18 17/17/17 20/20/20
f 20/20/20 19/19/19 18/18/18
f 22/22/22 24/24/24 21/21/21
f 24/24/24 22/22/22 23/23/23
